<svg xmlns="http://www.w3.org/2000/svg" width="480" height="566" viewBox="0 0 480 566" fill="none" role="img" aria-labelledby="title desc">
<title id="title">CreatorEngine | C++23 game engine</title>
<desc id="desc">In development. Runtime: Scene and Component, C# scripting and CoreCLR. Rendering: DirectX 12, Vulkan, Render Graph and Slang. Toolchain: Dear ImGui editor, asset cooking and packaging.</desc>
<defs><linearGradient id="bg" x1="0" y1="0" x2="480" y2="566" gradientUnits="userSpaceOnUse"><stop stop-color="#152130"/><stop offset="1" stop-color="#0d131c"/></linearGradient></defs>
<rect x="1" y="1" width="478" height="564" rx="20" fill="url(#bg)" stroke="#2c3c4c"/>
<g font-family="Segoe UI, Arial, sans-serif"><text x="24" y="39" fill="#91a6ba" font-size="12" font-weight="500" font-family="Consolas, Liberation Mono, monospace" letter-spacing="1.5">FEATURED PROJECT</text><rect x="318" y="23" width="138" height="28" rx="14" fill="#292719" stroke="#49452b"/><circle cx="332" cy="37" r="3" fill="#dfc780"/><text x="342" y="41" fill="#e5d29a" font-size="10" font-weight="600" letter-spacing=".7">IN DEVELOPMENT</text><text x="22" y="95" fill="#eef5fc" font-size="42" font-weight="700" letter-spacing="-1.5">CreatorEngine</text><text x="24" y="132" fill="#a7b7c9" font-size="20" font-weight="400" >C++23 game engine for Windows.</text><rect x="24" y="160" width="432" height="114" rx="13" fill="#111d29" stroke="#2b3d4f"/><g transform="translate(42 178)"><rect width="42" height="42" rx="11" fill="#80d4ba" fill-opacity=".10"/><g stroke="#80d4ba" stroke-width="1.7" stroke-linecap="round" stroke-linejoin="round"><path d="m21 9 12 7v14l-12 7-12-7V16Z M9 16l12 7 12-7 M21 23v14"/></g></g><text x="100" y="207" fill="#eaf2fa" font-size="25" font-weight="600" >Runtime</text><text x="100" y="237" fill="#a7b7c9" font-size="19" font-weight="400" >Scene / Component</text><text x="100" y="262" fill="#a7b7c9" font-size="19" font-weight="400" >C# scripting / CoreCLR</text><rect x="24" y="288" width="432" height="114" rx="13" fill="#111d29" stroke="#2b3d4f"/><g transform="translate(42 306)"><rect width="42" height="42" rx="11" fill="#79cbea" fill-opacity=".10"/><g stroke="#79cbea" stroke-width="1.7" stroke-linecap="round" stroke-linejoin="round"><rect x="10" y="10" width="22" height="22" rx="4"/><path d="M16 6v4 M26 6v4 M16 32v4 M26 32v4 M6 16h4 M6 26h4 M32 16h4 M32 26h4"/><path d="m17 17 10 4-10 4Z"/></g></g><text x="100" y="335" fill="#eaf2fa" font-size="25" font-weight="600" >Rendering</text><text x="100" y="365" fill="#a7b7c9" font-size="19" font-weight="400" >DirectX 12 / Vulkan</text><text x="100" y="390" fill="#a7b7c9" font-size="19" font-weight="400" >Render Graph / Slang</text><rect x="24" y="416" width="432" height="114" rx="13" fill="#111d29" stroke="#2b3d4f"/><g transform="translate(42 434)"><rect width="42" height="42" rx="11" fill="#dcbb91" fill-opacity=".10"/><g stroke="#dcbb91" stroke-width="1.7" stroke-linecap="round" stroke-linejoin="round"><rect x="7" y="9" width="28" height="25" rx="4"/><path d="M7 17h28 M16 17v17 M11 13h1 M16 13h1 M21 23h9 M21 28h6"/></g></g><text x="100" y="463" fill="#eaf2fa" font-size="25" font-weight="600" >Toolchain</text><text x="100" y="493" fill="#a7b7c9" font-size="19" font-weight="400" >Dear ImGui editor</text><text x="100" y="518" fill="#a7b7c9" font-size="19" font-weight="400" >Asset cook / Packaging</text></g>
</svg>
